<mxfile host="app.diagrams.net" modified="2025-03-31T11:17:14.710Z" agent="Mozilla/5.0 (Windows NT 10.0; Win64; x64; rv:136.0) Gecko/20100101 Firefox/136.0" etag="iRqd1vI4PkEz5y4mDpwW" version="24.3.1" type="device">
  <diagram name="Страница — 1" id="yAgx-q7i0FoWGloPE-GG">
    <mxGraphModel dx="724" dy="390" grid="1" gridSize="10" guides="1" tooltips="1" connect="1" arrows="1" fold="1" page="1" pageScale="1" pageWidth="827" pageHeight="1169" math="0" shadow="0">
      <root>
        <mxCell id="0" />
        <mxCell id="1" parent="0" />
        <mxCell id="Q0OgKuA4joVGONTKAH2Z-1" value="&lt;font style=&quot;font-size: 14px;&quot;&gt;Фермеры&lt;/font&gt;" style="rounded=0;whiteSpace=wrap;html=1;" vertex="1" parent="1">
          <mxGeometry x="150" y="90" width="120" height="60" as="geometry" />
        </mxCell>
        <mxCell id="Q0OgKuA4joVGONTKAH2Z-2" value="&lt;font style=&quot;font-size: 14px;&quot;&gt;Продукция&lt;/font&gt;" style="rounded=0;whiteSpace=wrap;html=1;" vertex="1" parent="1">
          <mxGeometry x="320" y="90" width="120" height="60" as="geometry" />
        </mxCell>
        <mxCell id="Q0OgKuA4joVGONTKAH2Z-3" value="&lt;font style=&quot;font-size: 14px;&quot;&gt;Склады&lt;/font&gt;" style="rounded=0;whiteSpace=wrap;html=1;" vertex="1" parent="1">
          <mxGeometry x="490" y="90" width="120" height="60" as="geometry" />
        </mxCell>
        <mxCell id="Q0OgKuA4joVGONTKAH2Z-4" value="&lt;font style=&quot;font-size: 14px;&quot;&gt;Заказы&lt;/font&gt;" style="rounded=0;whiteSpace=wrap;html=1;" vertex="1" parent="1">
          <mxGeometry x="320" y="230" width="120" height="60" as="geometry" />
        </mxCell>
        <mxCell id="Q0OgKuA4joVGONTKAH2Z-5" value="&lt;font style=&quot;font-size: 14px;&quot;&gt;СоставЗаказа&lt;/font&gt;" style="rounded=0;whiteSpace=wrap;html=1;" vertex="1" parent="1">
          <mxGeometry x="490" y="230" width="120" height="60" as="geometry" />
        </mxCell>
        <mxCell id="Q0OgKuA4joVGONTKAH2Z-6" value="&lt;font style=&quot;font-size: 14px;&quot;&gt;Покупатели&lt;/font&gt;" style="rounded=0;whiteSpace=wrap;html=1;" vertex="1" parent="1">
          <mxGeometry x="150" y="230" width="120" height="60" as="geometry" />
        </mxCell>
        <mxCell id="Q0OgKuA4joVGONTKAH2Z-7" value="" style="edgeStyle=entityRelationEdgeStyle;fontSize=12;html=1;endArrow=ERzeroToMany;startArrow=ERmandOne;rounded=0;entryX=0;entryY=0.5;entryDx=0;entryDy=0;" edge="1" parent="1" target="Q0OgKuA4joVGONTKAH2Z-2">
          <mxGeometry width="100" height="100" relative="1" as="geometry">
            <mxPoint x="270" y="120" as="sourcePoint" />
            <mxPoint x="370" y="20" as="targetPoint" />
          </mxGeometry>
        </mxCell>
        <mxCell id="Q0OgKuA4joVGONTKAH2Z-8" value="" style="edgeStyle=entityRelationEdgeStyle;fontSize=12;html=1;endArrow=ERzeroToMany;endFill=1;startArrow=ERzeroToMany;rounded=0;entryX=0;entryY=0.5;entryDx=0;entryDy=0;" edge="1" parent="1" target="Q0OgKuA4joVGONTKAH2Z-3">
          <mxGeometry width="100" height="100" relative="1" as="geometry">
            <mxPoint x="440" y="120" as="sourcePoint" />
            <mxPoint x="540" y="20" as="targetPoint" />
          </mxGeometry>
        </mxCell>
        <mxCell id="Q0OgKuA4joVGONTKAH2Z-12" value="" style="edgeStyle=entityRelationEdgeStyle;fontSize=12;html=1;endArrow=ERzeroToMany;startArrow=ERmandOne;rounded=0;" edge="1" parent="1" target="Q0OgKuA4joVGONTKAH2Z-4">
          <mxGeometry width="100" height="100" relative="1" as="geometry">
            <mxPoint x="270" y="260" as="sourcePoint" />
            <mxPoint x="370" y="160" as="targetPoint" />
          </mxGeometry>
        </mxCell>
        <mxCell id="Q0OgKuA4joVGONTKAH2Z-17" value="" style="edgeStyle=orthogonalEdgeStyle;fontSize=12;html=1;endArrow=ERzeroToMany;startArrow=ERmandOne;rounded=0;exitX=0.5;exitY=1;exitDx=0;exitDy=0;entryX=0.5;entryY=0;entryDx=0;entryDy=0;" edge="1" parent="1" source="Q0OgKuA4joVGONTKAH2Z-2" target="Q0OgKuA4joVGONTKAH2Z-5">
          <mxGeometry width="100" height="100" relative="1" as="geometry">
            <mxPoint x="450" y="280" as="sourcePoint" />
            <mxPoint x="550" y="180" as="targetPoint" />
          </mxGeometry>
        </mxCell>
        <mxCell id="Q0OgKuA4joVGONTKAH2Z-18" value="" style="edgeStyle=entityRelationEdgeStyle;fontSize=12;html=1;endArrow=ERzeroToMany;startArrow=ERmandOne;rounded=0;entryX=0;entryY=0.5;entryDx=0;entryDy=0;" edge="1" parent="1" target="Q0OgKuA4joVGONTKAH2Z-5">
          <mxGeometry width="100" height="100" relative="1" as="geometry">
            <mxPoint x="440" y="260" as="sourcePoint" />
            <mxPoint x="540" y="160" as="targetPoint" />
          </mxGeometry>
        </mxCell>
      </root>
    </mxGraphModel>
  </diagram>
</mxfile>
